# xmcd
#
# Track frame offsets: 
#        150
#        12265
#        31527
#        43867
#        64745
#        77782
#        95575
#        117675
#        133750
#        145707
#        166935
#        188952
#        199380
#        217860
#        231022
#
# Disc length: 3272 seconds
#
# Revision: 3
# Processed by: cddbd v1.5.2PL0 Copyright (c) Steve Scherf et al.
# Submitted via: ExactAudioCopy v1.0b3
#
DISCID=d00cc60f
DTITLE=Bette Midler - Experience The Divine - Greatest Hits
DYEAR=1993
DGENRE=Pop
TTITLE0=Favorite Waste of Time
TTITLE1=Hello In There
TTITLE2=Do You Want to Dance?
TTITLE3=From A Distance
TTITLE4=Chapel of Love
TTITLE5=Only in Miami
TTITLE6=When A Man Loves A Women
TTITLE7=The Rose
TTITLE8=Miss Otis Regrets
TTITLE9=Shiver Me Timbers
TTITLE10=Wind Beneath My Wings
TTITLE11=Boogie Woogie Bugle Boy
TTITLE12=One For My Baby (And One More For The Road)
TTITLE13=Friends
TTITLE14=In My Life
EXTD=
EXTT0=
EXTT1=
EXTT2=
EXTT3=
EXTT4=
EXTT5=
EXTT6=
EXTT7=
EXTT8=
EXTT9=
EXTT10=
EXTT11=
EXTT12=
EXTT13=
EXTT14=
PLAYORDER=
